<svg width="128" height="128" viewBox="0 0 128 128" fill="none" xmlns="http://www.w3.org/2000/svg">
<g filter="url(#filter0_d_2191_1770)">
<rect x="25.6211" y="10.2695" width="76.7578" height="107.461" rx="14.7019" fill="#F0F0F0"/>
<rect x="27.5387" y="12.1872" width="72.9225" height="103.626" rx="12.7843" stroke="#303030" stroke-width="3.83528"/>
<mask id="path-3-outside-1_2191_1770" maskUnits="userSpaceOnUse" x="47.2988" y="21.418" width="36" height="40" fill="black">
<rect fill="white" x="47.2988" y="21.418" width="36" height="40"/>
<path d="M49.9356 58.418V24.2295H58.3273V38.8373C59.985 38.2848 61.4354 37.5077 62.6786 36.5063C63.9563 35.4703 65.0442 34.2961 65.942 32.9838C66.8399 31.6715 67.5824 30.2729 68.1695 28.788C68.7565 27.2685 69.2055 25.749 69.5163 24.2295H78.944C78.5296 26.1979 77.9253 28.0627 77.131 29.824C76.3712 31.5507 75.4043 33.1392 74.2301 34.5896C73.056 36.0401 71.6919 37.3351 70.1379 38.4747C68.5839 39.5798 66.8226 40.4949 64.8542 41.2201V41.6345C66.9608 41.4619 68.7047 41.6 70.0861 42.0489C71.4674 42.4633 72.5898 43.085 73.4531 43.9138C74.3165 44.7426 74.9899 45.6923 75.4734 46.7628C75.9914 47.7988 76.423 48.8521 76.7684 49.9227L79.5138 58.418H70.1897L68.2213 50.8033C67.9105 49.56 67.4615 48.5586 66.8744 47.7988C66.3219 47.0045 65.5967 46.4347 64.6988 46.0894C63.8009 45.7441 62.6613 45.5714 61.28 45.5714H58.3273V58.418H49.9356Z"/>
</mask>
<path d="M49.9356 58.418V24.2295H58.3273V38.8373C59.985 38.2848 61.4354 37.5077 62.6786 36.5063C63.9563 35.4703 65.0442 34.2961 65.942 32.9838C66.8399 31.6715 67.5824 30.2729 68.1695 28.788C68.7565 27.2685 69.2055 25.749 69.5163 24.2295H78.944C78.5296 26.1979 77.9253 28.0627 77.131 29.824C76.3712 31.5507 75.4043 33.1392 74.2301 34.5896C73.056 36.0401 71.6919 37.3351 70.1379 38.4747C68.5839 39.5798 66.8226 40.4949 64.8542 41.2201V41.6345C66.9608 41.4619 68.7047 41.6 70.0861 42.0489C71.4674 42.4633 72.5898 43.085 73.4531 43.9138C74.3165 44.7426 74.9899 45.6923 75.4734 46.7628C75.9914 47.7988 76.423 48.8521 76.7684 49.9227L79.5138 58.418H70.1897L68.2213 50.8033C67.9105 49.56 67.4615 48.5586 66.8744 47.7988C66.3219 47.0045 65.5967 46.4347 64.6988 46.0894C63.8009 45.7441 62.6613 45.5714 61.28 45.5714H58.3273V58.418H49.9356Z" fill="#303030"/>
<path d="M49.9356 58.418H47.3788V60.9748H49.9356V58.418ZM49.9356 24.2295V21.6726H47.3788V24.2295H49.9356ZM58.3273 24.2295H60.8842V21.6726H58.3273V24.2295ZM58.3273 38.8373H55.7705V42.3847L59.1359 41.2629L58.3273 38.8373ZM62.6786 36.5063L64.2826 38.4974L64.2889 38.4923L62.6786 36.5063ZM65.942 32.9838L63.8318 31.54L63.8318 31.54L65.942 32.9838ZM68.1695 28.788L70.5472 29.728L70.5509 29.7187L70.5545 29.7094L68.1695 28.788ZM69.5163 24.2295V21.6726H67.4295L67.0113 23.7171L69.5163 24.2295ZM78.944 24.2295L81.446 24.7562L82.0952 21.6726H78.944V24.2295ZM77.131 29.824L74.8002 28.7728L74.7954 28.7835L74.7907 28.7942L77.131 29.824ZM74.2301 34.5896L72.2428 32.9809L72.2428 32.9809L74.2301 34.5896ZM70.1379 38.4747L71.6196 40.5584L71.6349 40.5476L71.6499 40.5366L70.1379 38.4747ZM64.8542 41.2201L63.9703 38.8209L62.2974 39.4373V41.2201H64.8542ZM64.8542 41.6345H62.2974V44.4095L65.0631 44.1828L64.8542 41.6345ZM70.0861 42.0489L69.2958 44.4806L69.3235 44.4896L69.3514 44.498L70.0861 42.0489ZM73.4531 43.9138L71.6824 45.7582L71.6824 45.7583L73.4531 43.9138ZM75.4734 46.7628L73.1431 47.8152L73.1639 47.8611L73.1865 47.9063L75.4734 46.7628ZM76.7684 49.9227L74.335 50.7076L74.3354 50.7089L76.7684 49.9227ZM79.5138 58.418V60.9748H83.0272L81.9468 57.6317L79.5138 58.418ZM70.1897 58.418L67.7142 59.0579L68.2097 60.9748H70.1897V58.418ZM68.2213 50.8033L65.7408 51.4234L65.7432 51.4333L65.7458 51.4432L68.2213 50.8033ZM66.8744 47.7988L64.7755 49.2589L64.8121 49.3115L64.8512 49.3622L66.8744 47.7988ZM64.6988 46.0894L63.781 48.4758L63.781 48.4758L64.6988 46.0894ZM58.3273 45.5714V43.0145H55.7705V45.5714H58.3273ZM58.3273 58.418V60.9748H60.8842V58.418H58.3273ZM49.9356 58.418H52.4925V24.2295H49.9356H47.3788V58.418H49.9356ZM49.9356 24.2295V26.7863H58.3273V24.2295V21.6726H49.9356V24.2295ZM58.3273 24.2295H55.7705V38.8373H58.3273H60.8842V24.2295H58.3273ZM58.3273 38.8373L59.1359 41.2629C61.0551 40.6232 62.7808 39.7072 64.2826 38.4974L62.6786 36.5063L61.0746 34.5151C60.09 35.3083 58.9148 35.9463 57.5188 36.4117L58.3273 38.8373ZM62.6786 36.5063L64.2889 38.4923C65.7519 37.3061 67.01 35.9508 68.0522 34.4276L65.942 32.9838L63.8318 31.54C63.0783 32.6414 62.1608 33.6344 61.0683 34.5202L62.6786 36.5063ZM65.942 32.9838L68.0522 34.4276C69.0583 32.9573 69.8903 31.3896 70.5472 29.728L68.1695 28.788L65.7917 27.8479C65.2744 29.1562 64.6216 30.3858 63.8318 31.54L65.942 32.9838ZM68.1695 28.788L70.5545 29.7094C71.1903 28.0638 71.6805 26.4076 72.0213 24.7419L69.5163 24.2295L67.0113 23.7171C66.7304 25.0903 66.3228 26.4731 65.7844 27.8665L68.1695 28.788ZM69.5163 24.2295V26.7863H78.944V24.2295V21.6726H69.5163V24.2295ZM78.944 24.2295L76.442 23.7028C76.064 25.4981 75.5156 27.1865 74.8002 28.7728L77.131 29.824L79.4618 30.8751C80.3349 28.939 80.9952 26.8977 81.446 24.7562L78.944 24.2295ZM77.131 29.824L74.7907 28.7942C74.1214 30.3154 73.2726 31.7089 72.2428 32.9809L74.2301 34.5896L76.2174 36.1984C77.536 34.5696 78.6211 32.7859 79.4713 30.8537L77.131 29.824ZM74.2301 34.5896L72.2428 32.9809C71.2115 34.2549 70.0085 35.3989 68.6259 36.4128L70.1379 38.4747L71.6499 40.5366C73.3754 39.2712 74.9005 37.8252 76.2174 36.1984L74.2301 34.5896ZM70.1379 38.4747L68.6561 36.391C67.3039 37.3525 65.7474 38.1662 63.9703 38.8209L64.8542 41.2201L65.7381 43.6193C67.8979 42.8236 69.8638 41.807 71.6196 40.5584L70.1379 38.4747ZM64.8542 41.2201H62.2974V41.6345H64.8542H67.4111V41.2201H64.8542ZM64.8542 41.6345L65.0631 44.1828C66.9729 44.0263 68.348 44.1726 69.2958 44.4806L70.0861 42.0489L70.8764 39.6173C69.0615 39.0274 66.9486 38.8974 64.6453 39.0862L64.8542 41.6345ZM70.0861 42.0489L69.3514 44.498C70.4232 44.8195 71.1657 45.2622 71.6824 45.7582L73.4531 43.9138L75.2238 42.0693C74.0139 40.9077 72.5117 40.1072 70.8208 39.5999L70.0861 42.0489ZM73.4531 43.9138L71.6824 45.7583C72.315 46.3655 72.7965 47.0476 73.1431 47.8152L75.4734 46.7628L77.8036 45.7104C77.1833 44.3369 76.318 43.1197 75.2238 42.0693L73.4531 43.9138ZM75.4734 46.7628L73.1865 47.9063C73.6484 48.8301 74.0305 49.7637 74.335 50.7076L76.7684 49.9227L79.2018 49.1377C78.8156 47.9405 78.3344 46.7676 77.7603 45.6194L75.4734 46.7628ZM76.7684 49.9227L74.3354 50.7089L77.0809 59.2042L79.5138 58.418L81.9468 57.6317L79.2013 49.1364L76.7684 49.9227ZM79.5138 58.418V55.8611H70.1897V58.418V60.9748H79.5138V58.418ZM70.1897 58.418L72.6652 57.778L70.6967 50.1633L68.2213 50.8033L65.7458 51.4432L67.7142 59.0579L70.1897 58.418ZM68.2213 50.8033L70.7018 50.1831C70.3325 48.706 69.76 47.3514 68.8976 46.2354L66.8744 47.7988L64.8512 49.3622C65.163 49.7657 65.4884 50.4141 65.7408 51.4234L68.2213 50.8033ZM66.8744 47.7988L68.9734 46.3387C68.1305 45.127 66.995 44.2331 65.6167 43.703L64.6988 46.0894L63.781 48.4758C64.1984 48.6364 64.5133 48.882 64.7755 49.2589L66.8744 47.7988ZM64.6988 46.0894L65.6167 43.703C64.328 43.2073 62.8497 43.0145 61.28 43.0145V45.5714V48.1282C62.473 48.1282 63.2738 48.2808 63.781 48.4758L64.6988 46.0894ZM61.28 45.5714V43.0145H58.3273V45.5714V48.1282H61.28V45.5714ZM58.3273 45.5714H55.7705V58.418H58.3273H60.8842V45.5714H58.3273ZM58.3273 58.418V55.8611H49.9356V58.418V60.9748H58.3273V58.418Z" fill="#F0F0F0" mask="url(#path-3-outside-1_2191_1770)"/>
<path d="M56.4561 95.7705C55.1858 95.9116 53.8942 95.8117 52.6514 95.4697C50.8228 94.9665 49.1721 93.9599 47.8877 92.5645C46.6033 91.1689 45.7368 89.4403 45.3867 87.5762C45.0367 85.7121 45.2176 83.7869 45.9082 82.0205C46.5989 80.2541 47.7714 78.7163 49.293 77.584C50.6444 76.5783 52.2232 75.9285 53.8838 75.6875C53.8223 74.0196 54.1739 72.3589 54.9121 70.8545C55.7457 69.1558 57.038 67.7239 58.6436 66.7227C60.2492 65.7214 62.1038 65.1905 63.9961 65.1895H64.0068L64.1699 65.1904H64.1768C66.0082 65.2226 67.7981 65.7517 69.3545 66.7217C70.961 67.7229 72.2549 69.1542 73.0889 70.8535C73.8274 72.3584 74.1779 74.02 74.1162 75.6885C75.7768 75.9294 77.3555 76.5794 78.707 77.585C80.2288 78.7173 81.402 80.2549 82.0928 82.0215C82.7834 83.788 82.9634 85.713 82.6133 87.5771C82.2632 89.4413 81.3969 91.1698 80.1123 92.5654C78.8277 93.961 77.1766 94.9677 75.3477 95.4707C74.1044 95.8126 72.8126 95.913 71.542 95.7715L72.2969 98.791C72.5356 99.7458 72.3215 100.758 71.7158 101.533C71.1101 102.309 70.1804 102.763 69.1963 102.763H58.8027C57.8188 102.763 56.8898 102.309 56.2842 101.533C55.6785 100.757 55.4635 99.7457 55.7021 98.791L56.4561 95.7705ZM63.9336 71.5811L63.9346 71.582C63.2596 71.5942 62.5998 71.789 62.0264 72.1465C61.4344 72.5156 60.9578 73.0436 60.6504 73.6699C60.3431 74.2963 60.2169 74.9963 60.2871 75.6904C60.3486 76.2977 60.5585 76.8791 60.8955 77.3848L61.0479 77.5967L61.0576 77.6104L61.1201 77.6953L61.1309 77.709C61.9616 78.8861 61.9033 80.4823 60.9736 81.5977C60.0139 82.7489 58.3833 83.0786 57.0518 82.3906C56.4305 82.0696 55.7311 81.9295 55.0342 81.9863C54.4244 82.0361 53.8373 82.2348 53.3242 82.5635L53.1094 82.7129C52.5486 83.1303 52.116 83.6965 51.8613 84.3477C51.6067 84.9989 51.5399 85.7092 51.6689 86.3965C51.798 87.0836 52.1174 87.7209 52.5908 88.2354C53.0644 88.7499 53.6735 89.1211 54.3477 89.3066C55.0217 89.4921 55.7343 89.4839 56.4043 89.2842C57.0745 89.0843 57.6752 88.7003 58.1377 88.1758C58.9618 87.2412 60.2477 86.8767 61.4297 87.2217L61.665 87.2998L61.8936 87.3965C63.0083 87.9194 63.7314 89.044 63.7314 90.29V92.6367C63.7314 92.8977 63.6992 93.1584 63.6357 93.4121L62.8965 96.3701H65.1035L64.3633 93.4121C64.3 93.1588 64.2686 92.8981 64.2686 92.6367V90.29C64.2686 88.9606 65.0914 87.7696 66.335 87.2998C67.5785 86.8301 68.9833 87.1794 69.8623 88.1768C70.3246 88.7012 70.9248 89.0851 71.5947 89.2852C72.2649 89.4852 72.9781 89.493 73.6523 89.3076C74.3267 89.1222 74.9355 88.7509 75.4092 88.2363C75.8827 87.7218 76.202 87.0847 76.3311 86.3975C76.4601 85.7101 76.3943 85 76.1396 84.3486C75.8849 83.6974 75.4516 83.1313 74.8906 82.7139C74.3296 82.2965 73.6628 82.0451 72.9658 81.9883C72.2906 81.9333 71.6132 82.0622 71.0068 82.3623L70.9473 82.3916L70.9482 82.3926C69.6166 83.0809 67.9852 82.7511 67.0254 81.5996C66.0656 80.4481 66.035 78.7836 66.9521 77.5977C67.3791 77.0456 67.6425 76.3847 67.7129 75.6904C67.7832 74.9962 67.6579 74.2963 67.3506 73.6699C67.0431 73.0434 66.566 72.5156 65.9736 72.1465C65.3999 71.789 64.7404 71.594 64.0654 71.582V71.5811H63.9336Z" fill="#303030" stroke="#F0F0F0" stroke-width="1.59803" stroke-linecap="round" stroke-linejoin="round"/>
</g>
<defs>
<filter id="filter0_d_2191_1770" x="25.6211" y="10.2695" width="76.7578" height="109.538" filterUnits="userSpaceOnUse" color-interpolation-filters="sRGB">
<feFlood flood-opacity="0" result="BackgroundImageFix"/>
<feColorMatrix in="SourceAlpha" type="matrix" values="0 0 0 0 0 0 0 0 0 0 0 0 0 0 0 0 0 0 127 0" result="hardAlpha"/>
<feOffset dy="2.07744"/>
<feComposite in2="hardAlpha" operator="out"/>
<feColorMatrix type="matrix" values="0 0 0 0 0.188235 0 0 0 0 0.188235 0 0 0 0 0.188235 0 0 0 1 0"/>
<feBlend mode="normal" in2="BackgroundImageFix" result="effect1_dropShadow_2191_1770"/>
<feBlend mode="normal" in="SourceGraphic" in2="effect1_dropShadow_2191_1770" result="shape"/>
</filter>
</defs>
</svg>
